<svg xmlns="http://www.w3.org/2000/svg" xmlns:xlink="http://www.w3.org/1999/xlink" viewBox="0 0 377.34 439.76"><defs><style>.cls-1{fill:url(#linear-gradient);}.cls-2{fill:none;}.cls-3{fill:#7e4a1e;}.cls-4{fill:#cf933e;}.cls-5{fill:#b1701d;}.cls-6{fill:#ecb25b;}.cls-7{fill:#fff;}</style><linearGradient id="linear-gradient" x1="140.88" y1="259.16" x2="270.62" y2="153.49" gradientUnits="userSpaceOnUse"><stop offset="0.02" stop-color="#402917"/><stop offset="1" stop-color="#694325"/></linearGradient></defs><title>Asset 2</title><g id="Layer_2" data-name="Layer 2"><g id="Layer_1-2" data-name="Layer 1"><path class="cls-1" d="M35.24.41s61.74-12.34,224,172c169,192,107,248,107,248s-145-39-227-168S35.24.41,35.24.41Z"/><path class="cls-2" d="M28.75,27.56c-.12.38-.25.75-.37,1.13C28.5,28.31,28.63,27.94,28.75,27.56Z"/><path class="cls-2" d="M341.39,419.5c.83.1,1.65.23,2.48.38C343,419.73,342.22,419.6,341.39,419.5Z"/><path class="cls-2" d="M312.39,394.51h0a7.75,7.75,0,0,1,.41-.69A7.75,7.75,0,0,0,312.39,394.51Z"/><path class="cls-2" d="M49.81,148.79a8.52,8.52,0,0,1,1-1.3,8.52,8.52,0,0,0-1,1.3c-.58.82-.69,2.44-.46,4.2C49.12,151.23,49.23,149.61,49.81,148.79Z"/><path class="cls-2" d="M356.91,423.15c.71-.58,1.36-1.52,2.27-1.09-.91-.43-1.56.51-2.27,1.08l-.84-.4c-3.89-.83-7.81-2-11.74-2.77,3.93.75,7.85,1.94,11.74,2.77C356.35,422.87,356.63,423,356.91,423.15Z"/><path class="cls-2" d="M34.68,3l-.23.19L34.68,3c.43.61.87,1.21,1.32,1.78h0C35.55,4.18,35.11,3.58,34.68,3Z"/><path class="cls-2" d="M28.06,59.1v0Z"/><path class="cls-2" d="M150.85,257.3h0c-.79-1.51-1.5-3.06-2.29-4.57C149.35,254.24,150.06,255.79,150.85,257.3Z"/><path class="cls-2" d="M216,413.23a2.42,2.42,0,0,1,1,.17A2.42,2.42,0,0,0,216,413.23Z"/><path class="cls-2" d="M150.87,257.53a.81.81,0,0,0,0-.16h0A.81.81,0,0,1,150.87,257.53Z"/><path class="cls-2" d="M16.83,78.84a6.06,6.06,0,0,0-.07,1A6.06,6.06,0,0,1,16.83,78.84Z"/><path class="cls-2" d="M50.23,156.5a15.83,15.83,0,0,1-.54-1.73A15.83,15.83,0,0,0,50.23,156.5Z"/><path class="cls-2" d="M22.21,73.64a2.2,2.2,0,0,1,.18-.48A2.2,2.2,0,0,0,22.21,73.64Z"/><path class="cls-2" d="M316.33,396.45a7.09,7.09,0,0,1,2.59,2.83h0A7.09,7.09,0,0,0,316.33,396.45Z"/><path class="cls-2" d="M301,398.11l.51.77Z"/><path class="cls-2" d="M307.86,397.72a1.73,1.73,0,0,1-.39,0A1.73,1.73,0,0,0,307.86,397.72Z"/><path class="cls-2" d="M305.12,406.78h0q-4.1-2.25-8.13-4.64Q301,404.53,305.12,406.78Z"/><path class="cls-2" d="M293,399.7c-2.68-1.65-5.35-3.35-8-5.1C287.61,396.35,290.28,398.05,293,399.7Z"/><path class="cls-2" d="M316.74,401.05a.43.43,0,0,0,0,.11A.43.43,0,0,1,316.74,401.05Z"/><path class="cls-2" d="M316.91,401.56a3.37,3.37,0,0,0,.36.61A3.37,3.37,0,0,1,316.91,401.56Z"/><path class="cls-2" d="M302.47,400.29l.54.8Z"/><path class="cls-2" d="M307.46,404.82c-1.14-1.1-2.66-1.92-3.92-2.94h0C304.8,402.9,306.32,403.72,307.46,404.82Z"/><path class="cls-3" d="M226.86,419.37c4.59,2.72,6.44,1.64,5.72-3.78a3,3,0,0,1,2.54-3.26c2.2-.58,3-1.89,2.45-4.06-.6-2.34-2.17-2.91-4.48-2.94-4.15-.05-7.55,1.88-10.94,3.85a2.34,2.34,0,0,1,.92-3.57c3.26-1.31,0-6.27,4.54-7.17,2.16-.42,3.34-1.1,5,.87,2.25,2.7,5.17,3.67,8.93,4.29,7.36,1.22,13.79,5,17.59,12,.89,1.64,1.78,3.23,3.58,4a5.48,5.48,0,0,0,5.23-.61c1.41-1,.3-2.41-.22-3.58-2-4.61,1.06-7.47,3.56-10.54-1.46-1.54-3-3-4.5-4.49-4.61-4.36-9.53-8.39-14.43-12.44a26,26,0,0,0-9.48-2.61,24.36,24.36,0,0,0-3.31-.05c-2.13.1-2.48-.9-2.81-2.55-.77-3.77-3.47-5.13-6.94-4.63-3.76.55-5.94-.47-7-4.34-1.36-4.84-4.67-6.18-9.05-3.73a14.89,14.89,0,0,1-5.66,1.66c-2.4.29-3.86-1-4-3.37s.62-4.3,3.44-4.49c1.48-.09,3.33-.69,4.4-.05,4.18,2.54,8.69-.17,12.88,1.19a1.81,1.81,0,0,0,2.45-1.13c.29-1-.4-1.83-1.08-2.62-6.89-8.13-15.34-14.62-23.6-21.12-9.54-7.52-17.84-16.27-27-24.16-1-.85-1-1.95-1.22-3.11-1.44-7.13-5.26-12.69-9.85-18.47-8.14-10.22-17.41-19.5-24.92-30.32,5,2.86,9.85,5.93,13.6,10.18a74.75,74.75,0,0,0,5.78,6c1.67,1.53,4.27,2.86,3.72,5.95a1.92,1.92,0,0,0,1.51,2.28c5.16.32,6.81,5.79,11.09,7.34.41.15,1,.54,1,.89,1.39,8.74,8.86,14.1,12.27,21.8,1.14,2.58,3.21,3.93-1,6.44,8.6-1,13.08,3,17.13,8.53,2.19,3,5.72,5,9.35,6.4,1.61.61,3.27,1.29,4,2.85,3.19,7.32,9.78,11.34,15.44,16.3,3.06,2.68,3.89,7.37,8.07,9.23,1.63.73,3,1.9,5.27,1a33.92,33.92,0,0,0-2.48-3.07c-2.61-2.9-5.48-5.42-7.37-8.74-1.17-.89-1.94-2.26-3.63-2.39a3.55,3.55,0,0,0-.79,0c-1.78.23-2.76-.86-1.53-2.76-2.24-5.56-7.33-8.57-11.79-11.61a49.24,49.24,0,0,1-15.4-17,30.46,30.46,0,0,0-8.89-9.54c3.51-.71,3.69-2.58,1.9-5.32-1.16-1.8-2-3.82-3-5.71-.46-.82-.66-1.57.19-2.16a1.25,1.25,0,0,1,2,.69c2.16,6.13,7.58,10,10.65,15.73,2.06,3.83,5.57,7.51,8.12,11.65-3.4-1.28-4.23-5.89-8.95-6.81,5.25,6.67,8.58,14.27,17.71,15.54a7.09,7.09,0,0,1,.94.34c1.29.44,2.58,2.69,3.77,1.21,1.47-1.83-.84-2.81-2.07-3.73-2-1.46-1.4-3,0-4.12,1.87-1.52,1.85.63,2.53,1.56,2.84,3.92,5.19,8.42,11.44,10-4.7-5.93-8.85-11.26-13.11-16.5-1.58-2-2.78-1-3.84,1.27.61-5.55-3.15-8.76-6.49-10.64-6.34-3.55-9.06-9.75-12.85-15.11a836.31,836.31,0,0,1-63.58-75.59C68.13,130,40.71,24.6,36,4.75c-.45-.57-.89-1.17-1.32-1.78l-.23.19-.69.58L33.47,4l-.36-.13c-.3-.18-.59-.37-.88-.56A75.07,75.07,0,0,0,28.43,23h0c1.15,1.56.8,3,.32,4.52-.12.38-.25.75-.37,1.13s-.16.57-.23.86A5.23,5.23,0,0,0,28,31.08c.58,7.15.94,14.3,2.41,21.35a6.63,6.63,0,0,1-2.37,6.67v.07c0,.14.08.41.08.4,3.43,1.24,3.91,4.38,4.36,7.13.06.39.13.78.2,1.15,1.43,7.3,4.25,14,6.79,20.91C41.43,94,41.75,100,41.76,105.68S44,116.43,46,121.51c.51,1.29,1.14,2.57,1.65,3.92.68,1.82,1.45,4.77,4.21,3.66,2.16-.87,3-1.3,3.79,1.34s.5,4.55-1.32,6.4a1.13,1.13,0,0,1-1.75,0c-2.59-3.11-6.71-4.84-7.78-9.38C42.91,119.38,39,112,36,104.27c-.37-.9-.71-2.12-1.43-2.53-8.89-5.06-7.76-13.84-8.33-22a2.48,2.48,0,0,1-.58-.47c-1.16-1.2-1-3.19-2.3-4.32-.87-.28-1.22-.73-1.1-1.32a2.2,2.2,0,0,1,.18-.48,3.28,3.28,0,0,1,.24-.37l-1.87-2.88-3.3,2.7c.72,1.79,0,3.49-.42,5.2-.08.34-.16.69-.21,1a6.06,6.06,0,0,0-.07,1,4.92,4.92,0,0,0,.15,1.06c1.61,4.23.24,8.31-.67,12.39-.25,1.11-1.29,2.2-1.17,3.21C16,104.48,12.57,112,13,119.92c.13,2.17.46,5-3.27,4.64-1.41-.15-1.67.64-1.87,1.68-.81,4-1.92,7.88,1.41,11.65,3,3.33,1.86,5.45-2.71,7.25a19.36,19.36,0,0,0-3.64,2.48c-1.22,6.76,2.39,12.8,2.86,19.28.9,12.39,6.83,23.42,9.19,35.4.35,1.78-.08,4.07.89,5.3,5.15,6.54,6.61,14.88,11.1,21.74,3.71,5.7,6.87,11.76,10.15,17.72,1.14,2.07,4,2.49,4.46,5.17a30.66,30.66,0,0,0,7.86,15.9c4.46,4.88,9.53,9.35,13,15.41,3.59,6.3,7.08,13.27,14.31,16.71.24.11.23.65.45.87C84,307.86,88,317.24,97.07,321.84c.57.29,1.35.78,1.46,1.29,1,4.93,5.57,6.2,8.9,8.72.65.49,1.56.71,2.06,1.3,7.56,9,13.17,19.52,22.43,27.07,1.61-.62,2.25.54,3,1.59a17.38,17.38,0,0,1,4.12,1.56c10.16,7.14,20.25,14.38,30.35,21.59.89-.42,1.28-.14,1.18.83,9,6,18.63,11.31,26.32,19.24,2.8,2.89,6.4,5.17,10.41,5.27,3.28.09,5.59,1.59,8.16,3a3.88,3.88,0,0,1,.57,0,2.42,2.42,0,0,1,1,.17,2,2,0,0,1,.73.5,3.05,3.05,0,0,1,.65,1.39l3.57,2.48c.47-.25.66-.12.59.4l2.69,1.84c.43-.17,1-.55,1.37-.65A.39.39,0,0,1,226.86,419.37Zm-47.38-141c2.81,3.17,5.87,5.29,7.32,9.06a26,26,0,0,0,5.93,8.94c.57.57,1.45,1.18.75,2a1.86,1.86,0,0,1-2.67.11,5.06,5.06,0,0,1-.94-1.14c-3.56-4.69-6-10.13-10.16-14.47A3.27,3.27,0,0,1,179.48,278.4Zm-24.42-23.17a2,2,0,0,1,2.46-1.16c2.11.5,6.37,7.33,6.34,11.59-2.54-4.3-3.32-8.52-8.13-8.58C154.52,257.07,154.73,256,155.06,255.23ZM143.3,244.12c.6-.79,1.38-.51,2.19-.19,4.39,1.7,7.33,9,5.36,13.37v0h0v0l.82,1c-1,.28-.81-.34-.81-.83a.81.81,0,0,0,0-.16l0,0,0,0c-.79-1.51-1.5-3.06-2.29-4.57a21,21,0,0,0-5.1-6.84A1.24,1.24,0,0,1,143.3,244.12Zm-86.64-83.3c-1.38,1.38-2.8-.33-3.95-.84-1-.44-1.86-1.81-2.48-3.48a15.83,15.83,0,0,1-.54-1.73,16.85,16.85,0,0,1-.34-1.78c-.23-1.76-.12-3.38.46-4.2a8.52,8.52,0,0,1,1-1.3,2.36,2.36,0,0,1,2.53-.63c1.93.6.69,2.19,1,3.32.61,2.32.75,4.76,2.1,6.93C57.1,158.11,57.65,159.84,56.66,160.82ZM58.26,140c4.76,1.81,4.42,6.18,5.73,9.61C61.08,147.25,58.56,144.56,58.26,140Zm50.68,128.71c-4,.5-5,3.9-2.5,6.75a2.38,2.38,0,0,1,.14,3.17c-.43.66-1,1.58-1.68,1.68-1.75.25-1.5-1.44-1.73-2.42-.74-3.05-3.66-4.26-5.56-6.15-2.55-2.55-3.12-5.17-3.16-9.32,3.17,2.26,5.44,6.48,8.89,1.48.16-.23,4.82,0,6.62,1.87C110.88,266.74,112.45,268.26,108.94,268.71Zm15.34-33.06a4.31,4.31,0,0,1-2.07,1.18,1.92,1.92,0,0,1-2.74-1.3c-.91-2.65-1.57-5.48-3-7.84-3.78-6.2-8.54-11.73-12.65-17.74C97.16,200.23,88.44,192,81.71,181c5.31.67,5.85,4.89,7.46,7.44,3.42,5.4,8.28,9.39,12.22,14.23a2.2,2.2,0,0,0,1.18.81c11.14,1.95,12.8,11.37,15.65,19.85,1.25,3.71,1.39,8,5.41,10.27C124.47,234.08,124.87,234.9,124.28,235.65Z"/><polygon class="cls-3" points="150.86 257.33 150.86 257.33 150.86 257.33 150.83 257.33 150.86 257.33"/><path class="cls-4" d="M338.58,410.12c-4.45-2.24-9.22-2.26-13.63-3.89a27.24,27.24,0,0,1-7.06-3.45,3.56,3.56,0,0,1-.62-.61,3.37,3.37,0,0,1-.36-.61,1.63,1.63,0,0,1-.15-.4.43.43,0,0,1,0-.11c-.16-.82.3-1.62,2.18-1.77a7.09,7.09,0,0,0-2.59-2.83,9.25,9.25,0,0,0-1.17-.61,2.2,2.2,0,0,1-.82-.06,5.35,5.35,0,0,1-1.95-1.27h0l-1.56.26h0a8.6,8.6,0,0,1-1.57,2.27,2.39,2.39,0,0,1-1,.62,1.19,1.19,0,0,1-.37.06,1.73,1.73,0,0,1-.39,0,4.9,4.9,0,0,1-2.69-2.1c-1.35-1.71-3.7-2.52-5-4.86-.25.69-.46,1.26-.59,1.76a5,5,0,0,0-.17,1,3.8,3.8,0,0,0,.07.94,12.37,12.37,0,0,0,1.88,3.71l.51.77,1,1.41.54.8.53.79c1.26,1,2.78,1.84,3.92,2.94a5.11,5.11,0,0,1,1.66,4.6,13.26,13.26,0,0,1-1.09.81.35.35,0,0,1-.27,0c-1-.4-.49-1.18-.17-1.85l-2.47-1.64h0a14.62,14.62,0,0,1-3.69,1.05,13.21,13.21,0,0,1-2.34.12,15.55,15.55,0,0,1-5.52-1.28,22.33,22.33,0,0,1-2.1-1,41.16,41.16,0,0,1-4.08-2.55c-5.15-3.58-8.59-10-16.08-9.65-3-5.17-9.11-4.89-13.41-7.72-3.3-2.18-4.72-1.13-5.55,2.18h0c4.89,4.05,9.81,8.08,14.42,12.44,1.54,1.46,3,2.95,4.5,4.49,6,4.22,6,4.22,6,8.73,4.5-3.73,7.76,1.09,11.7,1.58,5.53.69,11.5,3.11,16.48,1.3a60.6,60.6,0,0,1,15.47-3.62c2.29-.21,5.07-1.51,6,2.29.2.87,1.39.63,2.21.6,5.06-.14,10.63-.91,15,.32,4.89,1.36,9.82,1.36,14.67,1.88q-7.33-3.09-15-6.87A9.86,9.86,0,0,1,338.58,410.12Z"/><path class="cls-4" d="M365.91,421c0,.16,0,.31,0,.48h0a7.28,7.28,0,0,0,1.83.23l.43-.08c-.78-.29-1.57-.58-2.35-.89A2.38,2.38,0,0,1,365.91,421Z"/><path class="cls-4" d="M252.35,387.93h0c4.9,4.05,9.82,8.08,14.43,12.44-4.61-4.36-9.53-8.39-14.42-12.44Z"/><path class="cls-5" d="M36,4.75c-.51-2.18-.76-3.34-.76-3.34L34.91,0a3.83,3.83,0,0,0-1.72,1.93l1.49,1C35.11,3.58,35.55,4.18,36,4.75Z"/><path class="cls-5" d="M365.86,420.77q-3.48-1.33-7-2.83c-4.85-.52-9.78-.52-14.67-1.88-4.41-1.23-10-.46-15-.32-.82,0-2,.27-2.21-.6-.92-3.8-3.7-2.5-6-2.29a60.6,60.6,0,0,0-15.47,3.62c-5,1.81-10.95-.61-16.48-1.3-3.94-.49-7.2-5.31-11.7-1.58,0-4.51,0-4.51-6-8.73-2.5,3.07-5.6,5.93-3.56,10.54.52,1.17,1.63,2.6.22,3.58a5.48,5.48,0,0,1-5.23.61c-1.8-.74-2.69-2.33-3.58-4-3.8-7-10.23-10.8-17.59-12-3.76-.62-6.68-1.59-8.93-4.29-1.65-2-2.83-1.29-5-.87-4.53.9-1.28,5.86-4.54,7.17a2.34,2.34,0,0,0-.92,3.57c3.39-2,6.79-3.9,10.94-3.85,2.31,0,3.88.6,4.48,2.94.55,2.17-.25,3.48-2.45,4.06a3,3,0,0,0-2.54,3.26c.72,5.42-1.13,6.5-5.72,3.78a.39.39,0,0,0-.32,0c-.39.1-.94.48-1.37.65h0c4.14,4.47,9.87,6.55,15.13,8.9,3.79,1.71,8.71.93,12.24,4.12.82-1,1.24-2.56,2.94-2.27,5.57,1,11.19.87,16.78,1.21,3.17.2,5.85,3.72,9.68,3,1-.19,2.73,1.33,2.95-.31s1.57-3.85-.18-5.63a5.93,5.93,0,0,0-1.2-.89c-1.82-1.09-3.84-3-2.62-4.65s4.89-3,6-2.26c5.53,3.74,10.58.41,15.8-.2,1.14-.13,2.64-1.62,3.14.69.35,1.63-.83,2.24-2.16,2.84-1.63.73-4.72.94-3.27,3.74s3.65.37,5.54-.22c9.58-3,18.86-7.31,28.79-8.63a26.21,26.21,0,0,1,6.68,0c.83.1,1.65.23,2.48.38l.46.09c3.93.75,7.85,1.94,11.74,2.77l.84.4c.71-.57,1.36-1.51,2.27-1.08a2,2,0,0,1,.67.53l.66.89c2-.05,4.08-.07,5.44-2,0-.17,0-.32,0-.48A2.38,2.38,0,0,0,365.86,420.77Zm-122-1.76a2.51,2.51,0,0,1-3.9.51,3.55,3.55,0,0,1-1.23-4.74c.86-1.63,2.4-1.5,3.76-.5A4,4,0,0,1,243.86,419Z"/><path class="cls-5" d="M226.54,419.36c-.39.1-.94.48-1.37.65h0C225.6,419.84,226.15,419.46,226.54,419.36Z"/><path class="cls-5" d="M365.91,421a2.38,2.38,0,0,0-.05-.26h0A2.38,2.38,0,0,1,365.91,421Z"/><path class="cls-5" d="M365.91,421c0,.16,0,.31,0,.48h0C365.94,421.34,365.93,421.19,365.91,421Z"/><path class="cls-4" d="M297.39,436.18c-1.41-4.93,2.38-3.94,4.68-4a55,55,0,0,0,15-2.59,51.79,51.79,0,0,1,10.94-2,113.07,113.07,0,0,0,17.29-2.73c3.54-.89,7.66,1.09,10.8-2.1-3.89-.83-7.81-2-11.74-2.77l-.46-.09c-.83-.15-1.65-.28-2.48-.38a26.21,26.21,0,0,0-6.68,0c-9.93,1.32-19.21,5.66-28.79,8.63-1.89.59-4,3.14-5.54.22s1.64-3,3.27-3.74c1.33-.6,2.51-1.21,2.16-2.84-.5-2.31-2-.82-3.14-.69-5.22.61-10.27,3.94-15.8.2-1.09-.74-4.86.75-6,2.26s.8,3.56,2.62,4.65a5.93,5.93,0,0,1,1.2.89c1.75,1.78.41,3.85.18,5.63s-1.94.12-2.95.31c-3.83.71-6.51-2.81-9.68-3-5.59-.34-11.21-.25-16.78-1.21-1.7-.29-2.12,1.3-2.94,2.27,2,2.27,5.33,1.51,7.48,3.5,2.79,2.59,6.13,2.9,9.64,1.78a5.38,5.38,0,0,1,2.87-.27c7.49,1.54,15,2.69,22.59.53C295.92,437.77,297.54,436.72,297.39,436.18Z"/><path class="cls-4" d="M343.87,419.88l.46.09Z"/><path class="cls-5" d="M9.29,137.89c-3.33-3.77-2.22-7.62-1.41-11.65.2-1,.46-1.83,1.87-1.68,3.73.4,3.4-2.47,3.27-4.64-.45-7.9,2.94-15.44,2.05-23.38-.12-1,.92-2.1,1.17-3.21.91-4.08,2.28-8.16.67-12.39l-3.07,3.81C11.33,80,12.36,76.6,17.46,72.61h0l3.3-2.7c-.35-2.92-.69-5.83-1.15-9.72-4.73,5.31-8.17,10.24-9.42,16.58C8.25,86.57,7.62,96.59,5,106.27c-.06.47-.13,1-.19,1.43h0a6.28,6.28,0,0,1,.37,2.84c-.18,2-1.13,4-1.3,6l.21,2.79c1,1.92-.38,3.44-.87,5.1a.71.71,0,0,0,.18.73.37.37,0,0,1,.06.61L1.91,129q0,8.26,0,16.52a1.85,1.85,0,0,0,1.08,2.07,19.36,19.36,0,0,1,3.64-2.48C11.15,143.34,12.24,141.22,9.29,137.89Z"/><path class="cls-5" d="M17.46,72.61h0l3.3-2.7-3.3,2.7Z"/><path class="cls-4" d="M19.61,60.19c.46,3.89.8,6.8,1.15,9.72l1.87,2.88A1.37,1.37,0,0,1,23.31,75c1.28,1.13,1.14,3.12,2.3,4.32a2.48,2.48,0,0,0,.58.47c2.08-.75,1.87,2.74,4.29,2,.45-6.4-2.12-12.54-2.59-18.93-.08-1.13-.62-2.2.26-3.22l-.08-.41V59.1c-3.33-4.24-1.91-9.6-3.39-14.28-.32-1,.47-2.33-.84-3.09a43.89,43.89,0,0,0-9.59,13.8A106.63,106.63,0,0,0,6.59,84.25c-1,7.28-2.3,14.59-1.57,22,2.6-9.68,3.23-19.7,5.17-29.5C11.44,70.43,14.88,65.5,19.61,60.19Z"/><path class="cls-4" d="M28.15,59.57s0-.26-.08-.4l.08.41Z"/><path class="cls-4" d="M23.31,75c1.28,1.13,1.14,3.12,2.3,4.32-1.16-1.2-1-3.19-2.3-4.32Z"/><path class="cls-6" d="M356.91,423.15c-.28-.15-.56-.28-.84-.41-3.14,3.19-7.26,1.21-10.8,2.1A113.07,113.07,0,0,1,328,427.57a51.79,51.79,0,0,0-10.94,2,55,55,0,0,1-15,2.59c-2.3.1-6.09-.89-4.68,4,.15.54-1.47,1.59-2.27,2.39a21.63,21.63,0,0,0,11-2c12.65-5.48,25.93-7.63,39.53-8.89,5.05-.47,10.71-.06,14.87-4.21l-.66-.89A2.46,2.46,0,0,1,356.91,423.15Z"/><path class="cls-5" d="M24.67,44.82c1.48,4.68.06,10,3.39,14.28a6.63,6.63,0,0,0,2.37-6.67C29,45.38,28.6,38.23,28,31.08a5.23,5.23,0,0,1,.13-1.53c.07-.29.15-.57.23-.86s.25-.75.37-1.13c.48-1.49.83-3-.32-4.51h0c-2,1.09-2.35,2.94-2.6,5-.56,4.57-1.32,9.12-2,13.68C25.14,42.49,24.35,43.81,24.67,44.82Z"/><path class="cls-5" d="M28.38,28.69c-.08.29-.16.57-.23.86C28.22,29.26,28.3,29,28.38,28.69Z"/><path class="cls-5" d="M28.75,27.56c.48-1.49.83-3-.32-4.52h0C29.58,24.6,29.23,26.07,28.75,27.56Z"/><path class="cls-4" d="M1.86,145.55q0-8.25,0-16.52C-.86,134.53-.39,140,1.86,145.55Z"/><path class="cls-4" d="M4.83,107.7c-1.7,2.81-2.73,5.69-.93,8.88.17-2,1.12-4,1.3-6A6.28,6.28,0,0,0,4.83,107.7Z"/><path class="cls-4" d="M5.2,110.54a6.28,6.28,0,0,0-.37-2.84h0A6.28,6.28,0,0,1,5.2,110.54Z"/><path class="cls-4" d="M4.11,119.37c-1.58,1.48-2.2,3.12-.87,5.1C3.73,122.81,5.12,121.29,4.11,119.37Z"/><path class="cls-4" d="M131.92,360.22l3,1.59C134.17,360.76,133.53,359.6,131.92,360.22Z"/><path class="cls-5" d="M216,413.23a3.88,3.88,0,0,0-.57,0l2.91,2a3.05,3.05,0,0,0-.65-1.39,2,2,0,0,0-.73-.5A2.42,2.42,0,0,0,216,413.23Z"/><path class="cls-4" d="M169.34,385c-.11,1,.29,1.26,1.18.83C170.62,384.82,170.23,384.54,169.34,385Z"/><path class="cls-4" d="M33.76,3.74l.69-.58L34.68,3l-1.49-1a1.31,1.31,0,0,0-1,1.37c.29.19.58.38.88.56A.41.41,0,0,1,33.76,3.74Z"/><path class="cls-4" d="M33.76,3.74l.69-.58-.69.58Z"/><path class="cls-4" d="M3.42,125.2l-.22.32.28.29A.37.37,0,0,0,3.42,125.2Z"/><path class="cls-5" d="M221.89,417.77l.2.34.39.06C222.55,417.65,222.36,417.52,221.89,417.77Z"/><path class="cls-5" d="M257.9,385.75c4.3,2.83,10.41,2.55,13.41,7.72,7.49-.33,10.93,6.07,16.08,9.65a41.16,41.16,0,0,0,4.08,2.55,22.33,22.33,0,0,0,2.1,1,15.55,15.55,0,0,0,5.52,1.28,13.21,13.21,0,0,0,2.34-.12,14.62,14.62,0,0,0,3.69-1.05q-4.1-2.25-8.13-4.64c-1.34-.8-2.69-1.61-4-2.44-2.68-1.65-5.35-3.35-8-5.1-4-2.64-8.09-5.39-12.24-8.28,3.87-.64,6.44-.36,8.95,1.46C287.41,392,293.29,396,299.17,400c1.3.9,2.43,2.39,4.37,1.85h0l-.53-.79-.54-.8-1-1.41-.51-.77a12.37,12.37,0,0,1-1.88-3.71,3.8,3.8,0,0,1-.07-.94,5,5,0,0,1,.17-1c.13-.5.34-1.07.59-1.76,1.26,2.34,3.61,3.15,5,4.86a4.9,4.9,0,0,0,2.69,2.1,1.73,1.73,0,0,0,.39,0,1.19,1.19,0,0,0,.37-.06,2.39,2.39,0,0,0,1-.62,8.6,8.6,0,0,0,1.57-2.27c-1.24-.64-2.45-1.3-3.63-2a64.43,64.43,0,0,1-6.74-4.59,60.85,60.85,0,0,1-9.57-9.35q-9.66-6.93-19.56-14.75a10.31,10.31,0,0,1-6.72-2.81c-4.48-4.33-9.74-7.65-13-13.52q-8.2-7.1-16.5-14.78a2.52,2.52,0,0,1-.49-.28c-.82-.62-2.34-1.38-2.61-2.63q-14-13.19-28.2-28.06c3.79,5.36,6.51,11.56,12.85,15.11,3.34,1.88,7.1,5.09,6.49,10.64,1.06-2.24,2.26-3.22,3.84-1.27,4.26,5.24,8.41,10.57,13.11,16.5-6.25-1.54-8.6-6-11.44-10-.68-.93-.66-3.08-2.53-1.56-1.42,1.14-2,2.66,0,4.12,1.23.92,3.54,1.9,2.07,3.73-1.19,1.48-2.48-.77-3.77-1.21a7.09,7.09,0,0,0-.94-.34c-9.13-1.27-12.46-8.87-17.71-15.54,4.72.92,5.55,5.53,8.95,6.81-2.55-4.14-6.06-7.82-8.12-11.65-3.07-5.69-8.49-9.6-10.65-15.73a1.25,1.25,0,0,0-2-.69c-.85.59-.65,1.34-.19,2.16,1,1.89,1.84,3.91,3,5.71,1.79,2.74,1.61,4.61-1.9,5.32a30.46,30.46,0,0,1,8.89,9.54,49.24,49.24,0,0,0,15.4,17c4.46,3,9.55,6.05,11.79,11.61,2.54,1.07,7.49-.67,5.95,5.12,1.89,3.32,4.76,5.84,7.37,8.74a33.92,33.92,0,0,1,2.48,3.07c-2.24.91-3.64-.26-5.27-1-4.18-1.86-5-6.55-8.07-9.23-5.66-5-12.25-9-15.44-16.3-.68-1.56-2.34-2.24-4-2.85-3.63-1.36-7.16-3.39-9.35-6.4-4-5.53-8.53-9.52-17.13-8.53,4.24-2.51,2.17-3.86,1-6.44-3.41-7.7-10.88-13.06-12.27-21.8,0-.35-.63-.74-1-.89-4.28-1.55-5.93-7-11.09-7.34a1.92,1.92,0,0,1-1.51-2.28c.55-3.09-2.05-4.42-3.72-5.95a74.75,74.75,0,0,1-5.78-6c-3.75-4.25-8.62-7.32-13.6-10.18,7.51,10.82,16.78,20.1,24.92,30.32,4.59,5.78,8.41,11.34,9.85,18.47.24,1.16.23,2.26,1.22,3.11,9.13,7.89,17.43,16.64,27,24.16,8.26,6.5,16.71,13,23.6,21.12.68.79,1.37,1.58,1.08,2.62a1.81,1.81,0,0,1-2.45,1.13c-4.19-1.36-8.7,1.35-12.88-1.19-1.07-.64-2.92,0-4.4.05-2.82.19-3.62,2.11-3.44,4.49s1.64,3.66,4,3.37a14.89,14.89,0,0,0,5.66-1.66c4.38-2.45,7.69-1.11,9.05,3.73,1.09,3.87,3.27,4.89,7,4.34,3.47-.5,6.17.86,6.94,4.63.33,1.65.68,2.65,2.81,2.55a24.36,24.36,0,0,1,3.31.05,26.07,26.07,0,0,1,9.49,2.61C253.18,384.62,254.6,383.57,257.9,385.75Zm-7.23-25.92c8.05,5.11,14.21,13.28,23.17,17.28l1-1.35-8.06-5.63,1-1.26c11.11,5.33,18.24,16,30.18,22.53-4.12-.12-6.11-1.08-7.84-3-3.78-4.25-12.48-6-17.93-3.71-2.65,1.13-2.55-1.18-2.41-2.16.59-3.9-1.57-6.1-4.58-7.35-5.34-2.21-7.6-8.86-14-9.61C250.79,365.49,250.84,362,250.67,359.83Z"/><path class="cls-5" d="M318.92,399.28h0c-1.88.15-2.34,1-2.18,1.77a.43.43,0,0,0,0,.11,1.63,1.63,0,0,0,.15.4,3.37,3.37,0,0,0,.36.61,3.56,3.56,0,0,0,.62.61,27.24,27.24,0,0,0,7.06,3.45c4.41,1.63,9.18,1.65,13.63,3.89a9.86,9.86,0,0,0,5.27.95q-9.69-4.79-19.83-10.69Z"/><path class="cls-5" d="M312.39,394.51h0a5.35,5.35,0,0,0,1.95,1.27,2.2,2.2,0,0,0,.82.06l.2-.67-2.45-1.53-.11.18A7.75,7.75,0,0,0,312.39,394.51Z"/><path class="cls-5" d="M236.89,357.43c1.89,3.32,4.76,5.84,7.37,8.74-2.61-2.9-5.48-5.42-7.37-8.74Z"/><path class="cls-5" d="M242.86,385.32a26,26,0,0,1,9.48,2.61h0A26.07,26.07,0,0,0,242.86,385.32Z"/><path class="cls-5" d="M299.06,393.46a3.8,3.8,0,0,0,.07.94A3.8,3.8,0,0,1,299.06,393.46Z"/><path class="cls-5" d="M299.13,394.4a12.37,12.37,0,0,0,1.88,3.71A12.37,12.37,0,0,1,299.13,394.4Z"/><path class="cls-5" d="M299.23,392.5a5,5,0,0,0-.17,1A5,5,0,0,1,299.23,392.5Z"/><path class="cls-5" d="M301.43,407.83a13.21,13.21,0,0,1-2.34.12A13.21,13.21,0,0,0,301.43,407.83Z"/><path class="cls-5" d="M301.52,398.88l1,1.41Z"/><path class="cls-5" d="M305.12,406.78h0a14.62,14.62,0,0,1-3.69,1.05A14.62,14.62,0,0,0,305.12,406.78Z"/><path class="cls-5" d="M303.54,401.88l-.53-.79.53.79Z"/><path class="cls-5" d="M314.34,395.78a2.2,2.2,0,0,0,.82.06A2.2,2.2,0,0,1,314.34,395.78Z"/><path class="cls-5" d="M308.23,397.66a1.19,1.19,0,0,1-.37.06A1.19,1.19,0,0,0,308.23,397.66Z"/><path class="cls-5" d="M316.74,401.05c-.16-.82.3-1.62,2.18-1.77h0C317,399.43,316.58,400.23,316.74,401.05Z"/><path class="cls-5" d="M316.76,401.16a1.63,1.63,0,0,0,.15.4A1.63,1.63,0,0,1,316.76,401.16Z"/><path class="cls-5" d="M293.57,406.67a22.33,22.33,0,0,1-2.1-1A22.33,22.33,0,0,0,293.57,406.67Z"/><path class="cls-5" d="M312.39,394.51h0a5.35,5.35,0,0,0,1.95,1.27,5.35,5.35,0,0,1-1.95-1.27Z"/><path class="cls-5" d="M309.26,397a8.6,8.6,0,0,0,1.57-2.27h0A8.6,8.6,0,0,1,309.26,397Z"/><path class="cls-5" d="M28.15,59.58h0c-.88,1-.34,2.09-.26,3.22.47,6.39,3,12.53,2.59,18.93-2.42.76-2.21-2.73-4.29-2,.57,8.15-.56,16.93,8.33,22,.72.41,1.06,1.63,1.43,2.53,3.08,7.7,7,15.11,8.87,23.23,1.07,4.54,5.19,6.27,7.78,9.38a1.13,1.13,0,0,0,1.75,0c1.82-1.85,2-3.88,1.32-6.4s-1.63-2.21-3.79-1.34c-2.76,1.11-3.53-1.84-4.21-3.66-.51-1.35-1.14-2.63-1.65-3.92-2-5.08-4.24-10-4.26-15.83S41.43,94,39.5,88.76c-2.54-6.9-5.36-13.61-6.79-20.91-.07-.37-.14-.76-.2-1.15C32.06,64,31.58,60.81,28.15,59.58Z"/><path class="cls-5" d="M28.15,59.58c3.43,1.23,3.91,4.37,4.36,7.12-.45-2.75-.93-5.89-4.36-7.13Z"/><path class="cls-5" d="M123.63,233.61c-4-2.26-4.16-6.56-5.41-10.27-2.85-8.48-4.51-17.9-15.65-19.85a2.2,2.2,0,0,1-1.18-.81c-3.94-4.84-8.8-8.83-12.22-14.23-1.61-2.55-2.15-6.77-7.46-7.44,6.73,11,15.45,19.22,22.11,28.94,4.11,6,8.87,11.54,12.65,17.74,1.43,2.36,2.09,5.19,3,7.84a1.92,1.92,0,0,0,2.74,1.3,4.31,4.31,0,0,0,2.07-1.18C124.87,234.9,124.47,234.08,123.63,233.61Z"/><path class="cls-5" d="M103.34,263.9c-3.45,5-5.72.78-8.89-1.48,0,4.15.61,6.77,3.16,9.32,1.9,1.89,4.82,3.1,5.56,6.15.23,1,0,2.67,1.73,2.42.64-.1,1.25-1,1.68-1.68a2.38,2.38,0,0,0-.14-3.17c-2.48-2.85-1.48-6.25,2.5-6.75,3.51-.45,1.94-2,1-2.94C108.16,263.86,103.5,263.67,103.34,263.9Z"/><path class="cls-5" d="M54.38,150.18c-.3-1.13.94-2.72-1-3.32a2.36,2.36,0,0,0-2.53.63,8.52,8.52,0,0,0-1,1.3c-.58.82-.69,2.44-.46,4.2a16.85,16.85,0,0,0,.34,1.78,15.83,15.83,0,0,0,.54,1.73c.62,1.67,1.49,3,2.48,3.48,1.15.51,2.57,2.22,3.95.84,1-1,.44-2.71-.18-3.71C55.13,154.94,55,152.5,54.38,150.18Z"/><path class="cls-5" d="M49.69,154.77a16.85,16.85,0,0,1-.34-1.78A16.85,16.85,0,0,0,49.69,154.77Z"/><path class="cls-5" d="M189.87,297.4a5.06,5.06,0,0,0,.94,1.14,1.86,1.86,0,0,0,2.67-.11c.7-.85-.18-1.46-.75-2a26,26,0,0,1-5.93-8.94c-1.45-3.77-4.51-5.89-7.32-9.06a3.27,3.27,0,0,0,.23,4.53C183.83,287.27,186.31,292.71,189.87,297.4Z"/><path class="cls-5" d="M148.56,252.73c.79,1.51,1.5,3.06,2.29,4.57,2-4.36-1-11.67-5.36-13.37-.81-.32-1.59-.6-2.19.19a1.24,1.24,0,0,0,.16,1.77A21,21,0,0,1,148.56,252.73Z"/><path class="cls-5" d="M150.83,257.33h0v0Z"/><path class="cls-5" d="M150.86,257.33h0v0h0Z"/><path class="cls-4" d="M17.46,72.61c-5.1,4-6.13,7.35-3.62,12.14l3.07-3.81a4.92,4.92,0,0,1-.15-1.06,6.06,6.06,0,0,1,.07-1c.05-.34.13-.69.21-1C17.48,76.1,18.18,74.4,17.46,72.61Z"/><path class="cls-4" d="M17,77.81c.44-1.71,1.14-3.41.42-5.2h0C18.18,74.4,17.48,76.1,17,77.81Z"/><path class="cls-5" d="M155.73,257.08c4.81.06,5.59,4.28,8.13,8.58,0-4.26-4.23-11.09-6.34-11.59a2,2,0,0,0-2.46,1.16C154.73,256,154.52,257.07,155.73,257.08Z"/><path class="cls-5" d="M58.26,140c.3,4.56,2.82,7.25,5.73,9.61C62.68,146.18,63,141.81,58.26,140Z"/><path class="cls-4" d="M236.89,357.43c1.54-5.79-3.41-4.05-5.95-5.12-1.23,1.9-.25,3,1.53,2.76a3.55,3.55,0,0,1,.79,0c1.69.13,2.46,1.5,3.63,2.39Z"/><path class="cls-4" d="M236.89,357.43c-1.17-.89-1.94-2.26-3.63-2.39,1.69.13,2.46,1.5,3.63,2.39Z"/><path class="cls-5" d="M23.31,75h0a1.37,1.37,0,0,0-.68-2.17,3.28,3.28,0,0,0-.24.37,2.2,2.2,0,0,0-.18.48C22.09,74.23,22.44,74.67,23.31,75Z"/><path class="cls-5" d="M23.31,75c-.87-.29-1.22-.73-1.1-1.32-.12.59.23,1,1.1,1.32Z"/><path class="cls-5" d="M151.68,258.36l-.82-1a.81.81,0,0,1,0,.16C150.87,258,150.7,258.64,151.68,258.36Z"/><path class="cls-5" d="M150.86,257.37v0h0Z"/><path class="cls-5" d="M150.86,257.37v0h0v0Z"/><path class="cls-5" d="M33.76,3.74a.41.41,0,0,0-.65.12l.36.13.28-.25Z"/><path class="cls-5" d="M33.75,3.74,33.47,4l.29-.25h0Z"/><path class="cls-3" d="M300.46,388.18a64.43,64.43,0,0,0,6.74,4.59c1.18.7,2.39,1.36,3.63,2l1.56-.26a7.75,7.75,0,0,1,.41-.69l.11-.18q-10.82-6.81-22-14.81A60.85,60.85,0,0,0,300.46,388.18Z"/><path class="cls-3" d="M310.83,394.77l1.56-.26h0l-1.56.26Z"/><path class="cls-3" d="M307.2,392.77a64.43,64.43,0,0,1-6.74-4.59A64.43,64.43,0,0,0,307.2,392.77Z"/><path class="cls-3" d="M307.2,392.77c1.18.7,2.39,1.36,3.63,2h0C309.59,394.13,308.38,393.47,307.2,392.77Z"/><polygon class="cls-3" points="310.83 394.77 310.83 394.77 310.83 394.77 310.83 394.77"/><path class="cls-3" d="M299.17,400c-5.88-4-11.76-8.07-17.54-12.25-2.51-1.82-5.08-2.1-8.95-1.46,4.15,2.89,8.21,5.64,12.24,8.28,2.69,1.75,5.36,3.45,8,5.1,1.34.83,2.69,1.64,4,2.44q4,2.39,8.13,4.64l2.47,1.64,1.53,1h0a5.1,5.1,0,0,0-1.66-4.6c-1.14-1.1-2.66-1.92-3.92-2.94C301.6,402.42,300.47,400.93,299.17,400Z"/><path class="cls-3" d="M309.12,409.42h0a5.11,5.11,0,0,0-1.66-4.6A5.1,5.1,0,0,1,309.12,409.42Z"/><path class="cls-3" d="M316.33,396.45a7.09,7.09,0,0,1,2.59,2.83l5.1,1.1q-4.29-2.5-8.66-5.21l-.2.67A9.25,9.25,0,0,1,316.33,396.45Z"/><path class="cls-5" d="M307.59,408.42c-.32.67-.83,1.45.17,1.85a.35.35,0,0,0,.27,0,13.26,13.26,0,0,0,1.09-.81Z"/><path class="cls-5" d="M308,410.23a13.26,13.26,0,0,0,1.09-.81h0A13.26,13.26,0,0,1,308,410.23Z"/><path class="cls-4" d="M242.49,414.28c-1.36-1-2.9-1.13-3.76.5a3.55,3.55,0,0,0,1.23,4.74,2.51,2.51,0,0,0,3.9-.51A4,4,0,0,0,242.49,414.28Z"/><path class="cls-4" d="M356.91,423.15a2.46,2.46,0,0,0,2.94-.56,2,2,0,0,0-.67-.53C358.27,421.63,357.62,422.57,356.91,423.15Z"/><path class="cls-3" d="M234.63,332.69a2.52,2.52,0,0,0,.49.28l-3.1-2.91C232.29,331.31,233.81,332.07,234.63,332.69Z"/><path class="cls-3" d="M265.17,375.14c3,1.25,5.17,3.45,4.58,7.35-.14,1-.24,3.29,2.41,2.16,5.45-2.32,14.15-.54,17.93,3.71,1.73,2,3.72,2.92,7.84,3-11.94-6.54-19.07-17.2-30.18-22.53l-1,1.26,8.06,5.63-1,1.35c-9-4-15.12-12.17-23.17-17.28.17,2.19.12,5.66.48,5.7C257.57,366.28,259.83,372.93,265.17,375.14Z"/><path class="cls-3" d="M264.61,361.27a10.31,10.31,0,0,0,6.72,2.81q-9.76-7.72-19.71-16.33C254.87,353.62,260.13,356.94,264.61,361.27Z"/><path class="cls-7" d="M365.86,420.77a3.94,3.94,0,0,0-.19-.61,3.94,3.94,0,0,1,.19.61Z"/></g></g></svg>